PathFileType	4	(X/Y/Z)	C:/Users/opensim2020/Desktop/walking_exp_matlab/subject03_walking05_straight_04.trc																																																																																																																																					
DataRate	CameraRate	NumFrames	NumMarkers	Units	OrigDataRate	OrigDataStartFrame	OrigNumFrames																																																																																																																																	
100	100	4	45	mm	100	2891	294																																																																																																																																	
Frame#	Time	LFHD			RFHD			LBHD			RBHD			C7			T10			CLAV			STRN			RBAK			LSHO			LUPA			LELB			LFRM			LWRA			LWRB			LFIN			RSHO			RUPA			RELB			RFRM			RWRA			RWRB			RFIN			LASI			RASI			LPSI			RPSI			LTHI			LKNE			LTIB			LANK			LHEE			LTOE			RTHI			RKNE			RTIB			RANK			RHEE			RTOE			*39			*40			*41			*42			*43			*44		
		X1	Y1	Z1	X2	Y2	Z2	X3	Y3	Z3	X4	Y4	Z4	X5	Y5	Z5	X6	Y6	Z6	X7	Y7	Z7	X8	Y8	Z8	X9	Y9	Z9	X10	Y10	Z10	X11	Y11	Z11	X12	Y12	Z12	X13	Y13	Z13	X14	Y14	Z14	X15	Y15	Z15	X16	Y16	Z16	X17	Y17	Z17	X18	Y18	Z18	X19	Y19	Z19	X20	Y20	Z20	X21	Y21	Z21	X22	Y22	Z22	X23	Y23	Z23	X24	Y24	Z24	X25	Y25	Z25	X26	Y26	Z26	X27	Y27	Z27	X28	Y28	Z28	X29	Y29	Z29	X30	Y30	Z30	X31	Y31	Z31	X32	Y32	Z32	X33	Y33	Z33	X34	Y34	Z34	X35	Y35	Z35	X36	Y36	Z36	X37	Y37	Z37	X38	Y38	Z38	X39	Y39	Z39	X40	Y40	Z40	X41	Y41	Z41	X42	Y42	Z42	X43	Y43	Z43	X44	Y44	Z44	X45	Y45	Z45
																																																																																																																																								
37	0.36	-1257.52393	1619.47656	-1513.61328	-1278.03589	1620.51196	-1381.96375	-1389.1311	1590.60229	-1530.79004	-1404.24963	1590.79736	-1400.29663	-1443.60474	1430.9436	-1480.61206	-1492.85449	1117.21667	-1478.19153	-1324.60461	1350.05164	-1465.70325	-1286.74927	1184.37231	-1464.51123	-1513.11462	1258.93616	-1385.08533	-1351.21753	1386.55383	-1625.24414	-1344.93054	1192.8457	-1702.44189	-1328.49902	1071.98914	-1720.52771	-1292.96106	946.54639	-1724.18677	-1269.2124	828.63879	-1698.93628	-1286.45923	835.67426	-1751.77759	-1262.78064	754.8006	-1746.47131	-1385.00171	1378.45776	-1311.57532	-1388.67615	1155.79126	-1238.62622	-1372.02136	1044.67651	-1223.96387	-1347.74988	910.00098	-1219.51599	-1307.40955	817.13263	-1251.5376	-1343.5321	809.8324	-1211.44482	-1316.21533	740.2168	-1219.71033	-1317.47656	953.44098	-1580.96045	-1337.86841	947.63599	-1343.68286	-1483.38135	977.79681	-1542.38464	-1494.65942	975.65918	-1394.35583	-1374.90527	654.72809	-1629.77185	-1372.11902	475.67032	-1594.63171	-1422.19177	286.55252	-1603.62048	-1431.38855	72.19763	-1570.24146	-1470.07056	34.2152	-1534.16199	-1279.99658	36.59555	-1530.99561	-1342.26868	648.64075	-1305.1698	-1281.96375	479.03577	-1328.9928	-1407.90332	337.55167	-1336.94275	-1551.08691	180.91415	-1388.9469	-1602.29541	180.36063	-1445.79712	-1467.15833	68.18386	-1396.52063	-1338.45776	1690.71436	-1474.07263	NaN	NaN	NaN	NaN	NaN	NaN	NaN	NaN	NaN	NaN	NaN	NaN	NaN	NaN	NaN
38	0.37	-1249.03333	1619.2666	-1513.74976	-1269.91467	1620.25793	-1382.18848	-1380.68604	1590.69446	-1531.28455	-1396.08582	1590.80334	-1400.72742	-1435.52026	1430.86658	-1481.39905	-1484.73914	1117.19812	-1479.54468	-1316.55957	1350.02393	-1466.11182	-1278.51831	1184.38135	-1465.20837	-1505.61682	1259.01013	-1386.68127	-1342.6283	1386.96399	-1625.69666	-1333.78528	1193.79004	-1703.4259	-1314.75513	1073.48267	-1721.77307	-1276.44312	949.00311	-1725.84155	-1249.69128	831.43451	-1700.99072	-1267.50134	838.32507	-1753.62195	-1241.59192	758.36578	-1749.27637	-1377.77649	1378.31677	-1312.24963	-1382.27795	1155.75574	-1239.09204	-1365.82153	1044.72168	-1224.2041	-1341.30176	910.13409	-1219.57996	-1300.5835	817.31818	-1251.35986	-1337.11877	809.9837	-1211.39294	-1309.3031	740.46686	-1219.29919	-1309.19214	953.17804	-1582.05457	-1329.61755	947.89722	-1344.80579	-1475.11414	977.6076	-1543.22534	-1486.38733	975.66443	-1395.31677	-1368.52747	654.35651	-1630.20959	-1367.66064	475.34067	-1595.01599	-1419.55627	286.634	-1603.80164	-1431.22949	72.73505	-1570.33862	-1470.39392	34.93962	-1534.58386	-1279.80798	36.45526	-1530.95239	-1330.65869	649.83679	-1305.76489	-1267.48767	481.20087	-1329.9751	-1389.07104	335.23428	-1338.42053	-1526.76392	173.8528	-1391.09119	-1578.27795	171.18138	-1447.66382	-1437.81799	65.56313	-1399.04138	-1330.55701	1688.32739	-1476.17834	NaN	NaN	NaN	NaN	NaN	NaN	NaN	NaN	NaN	NaN	NaN	NaN	NaN	NaN	NaN
39	0.38	-1240.61829	1618.98682	-1513.81274	-1261.84045	1619.99329	-1382.24451	-1372.31946	1590.72034	-1531.74426	-1388.21423	1590.92493	-1401.37537	-1427.47021	1430.70984	-1482.18372	-1476.39294	1116.9613	-1480.73242	-1308.49585	1349.88953	-1466.49731	-1270.25989	1184.35046	-1465.60339	-1497.64233	1258.46606	-1387.86584	-1334.08716	1387.20508	-1626.06177	-1322.76697	1194.6416	-1704.36414	-1301.11169	1074.83093	-1722.97192	-1259.82166	951.18158	-1727.19763	-1230.26111	834.39343	-1702.80383	-1248.56067	840.93414	-1755.19922	-1220.61145	761.83228	-1751.55432	-1370.46594	1377.94177	-1312.83691	-1375.7373	1155.56836	-1239.4696	-1359.5769	1044.60632	-1224.38525	-1334.86426	910.09888	-1219.63025	-1293.5929	817.28766	-1251.24744	-1330.59814	809.9668	-1211.4386	-1302.59192	740.65015	-1218.85608	-1300.30652	952.89569	-1582.63965	-1321.47217	948.01807	-1345.80029	-1466.89465	977.38745	-1544.14404	-1478.15771	975.58063	-1396.23486	-1362.14417	653.89417	-1630.64441	-1363.22644	474.96838	-1595.33167	-1416.9491	286.68317	-1603.87646	-1430.8783	72.89079	-1570.15002	-1470.50098	35.65903	-1534.69263	-1279.64563	36.51487	-1531.10449	-1318.91431	650.97198	-1306.41187	-1253.38806	483.06116	-1331.23608	-1370.22778	332.63712	-1340.06299	-1501.82202	166.23216	-1393.04846	-1553.25586	161.2888	-1449.46082	-1407.42224	62.75225	-1401.0752	NaN	NaN	NaN	NaN	NaN	NaN	NaN	NaN	NaN	NaN	NaN	NaN	NaN	NaN	NaN	NaN	NaN	NaN
40	0.39	-1232.22473	1618.63416	-1513.74597	-1253.84851	1619.55994	-1382.27332	-1363.89844	1590.64575	-1532.09277	-1380.09216	1590.74475	-1401.74268	-1419.36121	1430.42993	-1482.86743	-1468.09497	1116.68469	-1481.9668	-1300.50098	1349.63342	-1466.80115	-1261.98462	1184.15491	-1466.08423	-1489.91235	1258.01648	-1389.27673	-1325.573	1387.2749	-1626.32178	-1311.7865	1195.38574	-1705.29041	-1287.58875	1075.88123	-1723.97949	-1243.45007	953.49414	-1728.59338	-1211.08789	837.26898	-1704.36792	-1229.76501	843.61267	-1756.58093	-1199.73914	765.3045	-1753.52649	-1363.18091	1377.49097	-1313.39172	-1369.15002	1155.18799	-1239.83618	-1353.32275	1044.28894	-1224.48438	-1328.55078	910.02423	-1219.40942	-1287.80078	816.78894	-1251.65393	-1323.96521	809.66797	-1211.52515	-1295.52881	740.5036	-1218.58398	-1293.24377	952.31665	-1584.38599	-1313.1731	947.86041	-1346.76904	-1458.69702	977.14185	-1545.07532	-1469.9021	975.33942	-1397.06531	-1355.80774	653.36798	-1631.05054	-1358.86682	474.51346	-1595.66992	-1414.4436	286.72809	-1603.97644	-1430.51807	73.10646	-1569.95728	-1470.78687	36.32441	-1534.83691	-1279.43005	36.40268	-1531.09595	-1307.50989	651.89685	-1307.14221	-1239.77429	484.79935	-1332.36304	-1351.29883	329.86142	-1341.25049	-1476.49341	158.60847	-1394.57166	-1527.45044	151.03966	-1451.0979	-1377.25732	59.62597	-1402.72546	-1314.12036	1687.13306	-1474.13611	NaN	NaN	NaN	NaN	NaN	NaN	NaN	NaN	NaN	NaN	NaN	NaN	NaN	NaN	NaN
